<svg width="98" height="98" viewBox="0 0 98 98" fill="none" xmlns="http://www.w3.org/2000/svg">
<path d="M48.75 0C21.8701 0 0 21.8701 0 48.75C0 75.6299 21.8701 97.5 48.75 97.5C75.6299 97.5 97.5 75.6299 97.5 48.75C97.5 21.8701 75.6299 0 48.75 0ZM48.75 7.5C71.5723 7.5 90 25.9277 90 48.75C90 71.5723 71.5723 90 48.75 90C25.9277 90 7.5 71.5723 7.5 48.75C7.5 25.9277 25.9277 7.5 48.75 7.5ZM48.75 18.75C38.4375 18.75 30 27.1875 30 37.5C30 43.1836 32.6514 48.2373 36.6797 51.6797C28.2422 56.0596 22.5 64.8779 22.5 75H30C30 64.5996 38.3496 56.25 48.75 56.25C59.1504 56.25 67.5 64.5996 67.5 75H75C75 64.8779 69.2578 56.0596 60.8203 51.6797C64.8486 48.2373 67.5 43.1836 67.5 37.5C67.5 27.1875 59.0625 18.75 48.75 18.75ZM48.75 26.25C55.0049 26.25 60 31.2451 60 37.5C60 43.7549 55.0049 48.75 48.75 48.75C42.4951 48.75 37.5 43.7549 37.5 37.5C37.5 31.2451 42.4951 26.25 48.75 26.25Z" fill="#A4A6B3"/>
</svg>
